<?xml version="1.0" encoding="iso-8859-1"?>
<!-- Generator: Adobe Illustrator 19.0.0, SVG Export Plug-In . SVG Version: 6.00 Build 0)  -->
<svg version="1.1" id="Capa_1" xmlns="http://www.w3.org/2000/svg" xmlns:xlink="http://www.w3.org/1999/xlink" x="0px" y="0px"
	 viewBox="0 0 512 512" style="enable-background:new 0 0 512 512;" xml:space="preserve">
<g>
	<g transform="translate(1 1)">
		<path style="fill:#A4C2F7;" d="M502.467,41.667v426.667c0.002,9.053-3.593,17.737-9.995,24.138s-15.085,9.997-24.138,9.995H41.667
			c-9.053,0.002-17.737-3.593-24.138-9.995s-9.997-15.085-9.995-24.138V127c0.006-15.66,10.664-29.308,25.856-33.109
			c2.704-0.692,5.486-1.036,8.277-1.024h17.067v-51.2c-0.002-9.053,3.593-17.737,9.995-24.139
			c6.402-6.402,15.085-9.997,24.139-9.995h375.467c9.053-0.002,17.737,3.593,24.139,9.995S502.469,32.613,502.467,41.667z"/>
		<g>
			<path style="fill:#E3E7F2;" d="M476.867,41.667v426.667c0.002,9.053-3.593,17.737-9.995,24.138s-15.085,9.997-24.138,9.995
				H41.667c-9.053,0.002-17.737-3.593-24.138-9.995s-9.997-15.085-9.995-24.138V127c0.006-15.66,10.664-29.308,25.856-33.109
				c2.704-0.692,5.486-1.036,8.277-1.024h17.067v-51.2c-0.002-9.053,3.593-17.737,9.995-24.139
				c6.402-6.402,15.085-9.997,24.139-9.995h349.867c9.053-0.002,17.737,3.593,24.139,9.995
				C473.274,23.93,476.869,32.613,476.867,41.667z"/>
			<path style="fill:#E3E7F2;" d="M468.333,212.333V229.4H434.2v17.067H383v17.067h-34.133V229.4h-34.133v51.2h-68.267v-51.2
				h-34.133v34.133H178.2V229.4h-34.133V255h-51.2v-42.667c0.028-9.414,7.652-17.039,17.067-17.067h341.333
				C460.681,195.294,468.306,202.919,468.333,212.333z"/>
			<path style="fill:#E3E7F2;" d="M468.333,229.4v68.267c-0.028,9.414-7.652,17.039-17.067,17.067H109.933
				c-9.414-0.028-17.039-7.652-17.067-17.067V255h51.2v-25.6H178.2v34.133h34.133V229.4h34.133v51.2h68.267v-51.2h34.133v34.133H383
				v-17.067h51.2V229.4H468.333z"/>
			<circle style="fill:#E3E7F2;" cx="280.6" cy="101.4" r="59.733"/>
		</g>
		<g>
			<path style="fill:#A4C2F7;" d="M468.333,229.4v68.267c-0.028,9.414-7.652,17.039-17.067,17.067h-25.6
				c9.414-0.028,17.039-7.652,17.067-17.067V229.4H468.333z"/>
			<path style="fill:#A4C2F7;" d="M468.333,212.333V229.4h-25.6v-17.067c-0.028-9.414-7.652-17.039-17.067-17.067h25.6
				C460.681,195.294,468.306,202.919,468.333,212.333z"/>
		</g>
	</g>
	<path style="fill:#FFFFFF;" d="M68.267,503.467h-25.6c-9.053,0.002-17.737-3.593-24.138-9.995s-9.997-15.085-9.995-24.138V128
		c0.006-15.66,10.664-29.308,25.856-33.109c2.704-0.692,5.486-1.036,8.277-1.024h14.592v1.877
		C43.43,100.423,34.126,113.401,34.133,128v341.333c-0.002,9.053,3.593,17.737,9.995,24.138S59.213,503.469,68.267,503.467z"/>
	<g>
		<polygon style="fill:#FFFFFF;" points="17.067,128 17.067,238.933 17.067,469.333 0,469.333 0,238.933 0,128 		"/>
		<g>
			<path style="fill:#428DFF;" d="M8.533,204.8c2.259-0.034,4.422-0.918,6.059-2.475c3.3-3.365,3.3-8.752,0-12.117l-1.279-1.025
				c-0.476-0.324-0.993-0.583-1.538-0.771c-0.484-0.246-1.003-0.417-1.538-0.509c-0.563-0.096-1.133-0.153-1.704-0.171
				c-2.259,0.031-4.423,0.915-6.059,2.475c-3.222,3.397-3.222,8.721,0,12.117c0.815,0.771,1.77,1.379,2.813,1.792
				C6.314,204.555,7.417,204.787,8.533,204.8z"/>
			<path style="fill:#428DFF;" d="M42.667,512h426.667c23.553-0.028,42.639-19.114,42.667-42.667V42.667
				C511.972,19.114,492.886,0.028,469.333,0H93.867C70.314,0.028,51.228,19.114,51.2,42.667v42.667h-8.533
				C19.114,85.361,0.028,104.447,0,128v34.133c0,4.713,3.821,8.533,8.533,8.533s8.533-3.821,8.533-8.533V128
				c0.015-14.132,11.468-25.585,25.6-25.6H51.2v332.8c0,4.713,3.821,8.533,8.533,8.533s8.533-3.821,8.533-8.533V42.667
				c0.015-14.132,11.468-25.585,25.6-25.6h375.467c14.132,0.015,25.585,11.468,25.6,25.6v426.667
				c-0.015,14.132-11.468,25.585-25.6,25.6H42.667c-14.132-0.015-25.585-11.468-25.6-25.6V230.4c0-4.713-3.821-8.533-8.533-8.533
				S0,225.687,0,230.4v238.933C0.028,492.886,19.114,511.972,42.667,512z"/>
			<path style="fill:#428DFF;" d="M349.867,102.4c0-37.703-30.564-68.267-68.267-68.267s-68.267,30.564-68.267,68.267
				s30.564,68.267,68.267,68.267C319.285,170.624,349.824,140.085,349.867,102.4z M267.31,128h28.58
				c-3.661,16.175-10.139,25.6-14.291,25.6C277.448,153.6,270.971,144.175,267.31,128z M230.4,102.4
				c0.018-2.861,0.275-5.715,0.771-8.533h16.574c-0.166,2.836-0.278,5.682-0.278,8.533c0,2.851,0.112,5.697,0.278,8.533h-16.574
				C230.675,108.115,230.418,105.261,230.4,102.4z M264.533,102.4c0-2.993,0.183-5.765,0.367-8.533H298.3
				c0.183,2.768,0.367,5.54,0.367,8.533c0,2.993-0.183,5.765-0.367,8.533H264.9C264.717,108.165,264.533,105.393,264.533,102.4z
				 M281.6,51.2c4.152,0,10.63,9.425,14.291,25.6h-28.58C270.971,60.625,277.448,51.2,281.6,51.2z M332.8,102.4
				c-0.018,2.861-0.275,5.715-0.771,8.533h-16.574c0.166-2.836,0.278-5.682,0.278-8.533c0-2.851-0.112-5.697-0.278-8.533h16.574
				C332.525,96.685,332.782,99.539,332.8,102.4z M308.408,145.938c2.224-5.811,3.903-11.816,5.015-17.938h12.45
				C321.616,135.325,315.617,141.487,308.408,145.938z M325.873,76.8h-12.45c-1.111-6.122-2.79-12.127-5.015-17.938
				C315.617,63.313,321.616,69.475,325.873,76.8z M254.792,58.862c-2.224,5.811-3.903,11.816-5.015,17.938h-12.45
				C241.584,69.475,247.583,63.313,254.792,58.862z M237.327,128h12.45c1.111,6.122,2.79,12.127,5.015,17.938
				C247.583,141.487,241.584,135.325,237.327,128z"/>
			<path style="fill:#428DFF;" d="M102.4,110.933h85.333c4.713,0,8.533-3.821,8.533-8.533c0-4.713-3.821-8.533-8.533-8.533H102.4
				c-4.713,0-8.533,3.821-8.533,8.533C93.867,107.113,97.687,110.933,102.4,110.933z"/>
			<path style="fill:#428DFF;" d="M102.4,145.067h93.867c4.713,0,8.533-3.821,8.533-8.533S200.98,128,196.267,128H102.4
				c-4.713,0-8.533,3.821-8.533,8.533S97.687,145.067,102.4,145.067z"/>
			<path style="fill:#428DFF;" d="M358.4,136.533c-0.001,2.263,0.898,4.434,2.499,6.035c1.6,1.6,3.771,2.499,6.035,2.499H460.8
				c4.713,0,8.533-3.821,8.533-8.533S465.513,128,460.8,128h-93.867c-2.263-0.001-4.434,0.898-6.035,2.499
				C359.298,132.099,358.399,134.27,358.4,136.533z"/>
			<path style="fill:#428DFF;" d="M460.8,110.933c4.713,0,8.533-3.821,8.533-8.533c0-4.713-3.82-8.533-8.533-8.533h-85.333
				c-4.713,0-8.533,3.821-8.533,8.533c0,4.713,3.821,8.533,8.533,8.533H460.8z"/>
			<path style="fill:#428DFF;" d="M85.333,213.333v85.333c0.015,14.132,11.468,25.585,25.6,25.6h341.333
				c14.132-0.015,25.585-11.468,25.6-25.6v-85.333c-0.015-14.132-11.468-25.585-25.6-25.6H110.933
				C96.801,187.749,85.349,199.201,85.333,213.333z M452.267,307.2H110.933c-4.711-0.005-8.529-3.822-8.533-8.533v-34.133h42.667
				c2.263,0.001,4.434-0.898,6.035-2.499s2.499-3.771,2.499-6.035v-17.067h17.067v25.6c-0.001,2.263,0.898,4.434,2.499,6.035
				c1.6,1.6,3.771,2.499,6.035,2.499h34.133c2.263,0.001,4.434-0.898,6.035-2.499c1.6-1.6,2.499-3.771,2.499-6.035v-25.6h17.067
				V281.6c-0.001,2.263,0.898,4.434,2.499,6.035c1.6,1.6,3.771,2.499,6.035,2.499h68.267c2.263,0.001,4.434-0.898,6.035-2.499
				c1.6-1.6,2.499-3.771,2.499-6.035v-42.667h17.067v25.6c-0.001,2.263,0.898,4.434,2.499,6.035c1.6,1.6,3.771,2.499,6.035,2.499
				H384c2.263,0.001,4.434-0.898,6.035-2.499c1.6-1.6,2.499-3.771,2.499-6.035V256H435.2c2.263,0.001,4.434-0.898,6.035-2.499
				s2.499-3.771,2.499-6.035v-8.533H460.8v59.733C460.795,303.378,456.978,307.195,452.267,307.2z M110.933,204.8h341.333
				c4.711,0.005,8.529,3.822,8.533,8.533v8.533h-25.6c-2.263-0.001-4.434,0.898-6.035,2.499c-1.6,1.6-2.499,3.771-2.499,6.035v8.533
				H384c-2.263-0.001-4.434,0.898-6.035,2.499c-1.6,1.6-2.499,3.771-2.499,6.035V256H358.4v-25.6
				c0.001-2.263-0.898-4.434-2.499-6.035c-1.6-1.6-3.771-2.499-6.035-2.499h-34.133c-2.263-0.001-4.434,0.898-6.035,2.499
				c-1.6,1.6-2.499,3.771-2.499,6.035v42.667H256V230.4c0.001-2.263-0.898-4.434-2.499-6.035c-1.6-1.6-3.771-2.499-6.035-2.499
				h-34.133c-2.263-0.001-4.434,0.898-6.035,2.499c-1.6,1.6-2.499,3.771-2.499,6.035V256h-17.067v-25.6
				c0.001-2.263-0.898-4.434-2.499-6.035c-1.6-1.6-3.771-2.499-6.035-2.499h-34.133c-2.263-0.001-4.434,0.898-6.035,2.499
				c-1.6,1.6-2.499,3.771-2.499,6.035v17.067H102.4v-34.133C102.405,208.622,106.222,204.805,110.933,204.8z"/>
			<path style="fill:#428DFF;" d="M93.867,366.933h68.267c4.713,0,8.533-3.82,8.533-8.533s-3.821-8.533-8.533-8.533H93.867
				c-4.713,0-8.533,3.82-8.533,8.533S89.154,366.933,93.867,366.933z"/>
			<path style="fill:#428DFF;" d="M93.867,401.067h68.267c4.713,0,8.533-3.82,8.533-8.533S166.846,384,162.133,384H93.867
				c-4.713,0-8.533,3.82-8.533,8.533S89.154,401.067,93.867,401.067z"/>
			<path style="fill:#428DFF;" d="M93.867,435.2h68.267c4.713,0,8.533-3.82,8.533-8.533s-3.821-8.533-8.533-8.533H93.867
				c-4.713,0-8.533,3.82-8.533,8.533S89.154,435.2,93.867,435.2z"/>
			<path style="fill:#428DFF;" d="M93.867,469.333h68.267c4.713,0,8.533-3.82,8.533-8.533s-3.821-8.533-8.533-8.533H93.867
				c-4.713,0-8.533,3.82-8.533,8.533S89.154,469.333,93.867,469.333z"/>
			<path style="fill:#428DFF;" d="M264.533,349.867h-68.267c-4.713,0-8.533,3.82-8.533,8.533s3.821,8.533,8.533,8.533h68.267
				c4.713,0,8.533-3.82,8.533-8.533S269.246,349.867,264.533,349.867z"/>
			<path style="fill:#428DFF;" d="M264.533,384h-68.267c-4.713,0-8.533,3.82-8.533,8.533s3.821,8.533,8.533,8.533h68.267
				c4.713,0,8.533-3.82,8.533-8.533S269.246,384,264.533,384z"/>
			<path style="fill:#428DFF;" d="M264.533,418.133h-68.267c-4.713,0-8.533,3.82-8.533,8.533s3.821,8.533,8.533,8.533h68.267
				c4.713,0,8.533-3.82,8.533-8.533S269.246,418.133,264.533,418.133z"/>
			<path style="fill:#428DFF;" d="M264.533,452.267h-68.267c-4.713,0-8.533,3.82-8.533,8.533s3.821,8.533,8.533,8.533h68.267
				c4.713,0,8.533-3.82,8.533-8.533S269.246,452.267,264.533,452.267z"/>
			<path style="fill:#428DFF;" d="M366.933,349.867h-68.267c-4.713,0-8.533,3.82-8.533,8.533s3.82,8.533,8.533,8.533h68.267
				c4.713,0,8.533-3.82,8.533-8.533S371.646,349.867,366.933,349.867z"/>
			<path style="fill:#428DFF;" d="M366.933,384h-68.267c-4.713,0-8.533,3.82-8.533,8.533s3.82,8.533,8.533,8.533h68.267
				c4.713,0,8.533-3.82,8.533-8.533S371.646,384,366.933,384z"/>
			<path style="fill:#428DFF;" d="M366.933,418.133h-68.267c-4.713,0-8.533,3.82-8.533,8.533s3.82,8.533,8.533,8.533h68.267
				c4.713,0,8.533-3.82,8.533-8.533S371.646,418.133,366.933,418.133z"/>
			<path style="fill:#428DFF;" d="M366.933,452.267h-68.267c-4.713,0-8.533,3.82-8.533,8.533s3.82,8.533,8.533,8.533h68.267
				c4.713,0,8.533-3.82,8.533-8.533S371.646,452.267,366.933,452.267z"/>
			<path style="fill:#428DFF;" d="M469.333,349.867h-68.267c-4.713,0-8.533,3.82-8.533,8.533s3.82,8.533,8.533,8.533h68.267
				c4.713,0,8.533-3.82,8.533-8.533S474.046,349.867,469.333,349.867z"/>
			<path style="fill:#428DFF;" d="M469.333,384h-68.267c-4.713,0-8.533,3.82-8.533,8.533s3.82,8.533,8.533,8.533h68.267
				c4.713,0,8.533-3.82,8.533-8.533S474.046,384,469.333,384z"/>
			<path style="fill:#428DFF;" d="M469.333,418.133h-68.267c-4.713,0-8.533,3.82-8.533,8.533s3.82,8.533,8.533,8.533h68.267
				c4.713,0,8.533-3.82,8.533-8.533S474.046,418.133,469.333,418.133z"/>
			<path style="fill:#428DFF;" d="M469.333,452.267h-68.267c-4.713,0-8.533,3.82-8.533,8.533s3.82,8.533,8.533,8.533h68.267
				c4.713,0,8.533-3.82,8.533-8.533S474.046,452.267,469.333,452.267z"/>
		</g>
	</g>
</g>
<g>
</g>
<g>
</g>
<g>
</g>
<g>
</g>
<g>
</g>
<g>
</g>
<g>
</g>
<g>
</g>
<g>
</g>
<g>
</g>
<g>
</g>
<g>
</g>
<g>
</g>
<g>
</g>
<g>
</g>
</svg>
